# Blender 3.6.2
# www.blender.org
mtllib basic_grass.mtl
o Plane.002
v -0.373770 -0.008109 0.589603
v -0.016970 -0.008836 0.136538
v -0.411207 0.566564 0.559198
v -0.054407 0.565836 0.106133
v -0.195370 -0.008473 0.363071
v -0.232807 0.566200 0.332665
v -0.106170 -0.008654 0.249805
v -0.143607 0.566018 0.219399
v -0.322007 0.566382 0.445932
v -0.284570 -0.008291 0.476337
v -0.400272 0.398712 0.568079
v -0.043473 0.397985 0.115014
v -0.221873 0.398348 0.341546
v -0.132673 0.398166 0.228280
v -0.311073 0.398530 0.454813
v -0.390443 0.247820 0.576062
v -0.033643 0.247093 0.122997
v -0.212043 0.247456 0.349530
v -0.122843 0.247275 0.236264
v -0.301243 0.247638 0.462796
v 0.027156 -0.005861 0.288438
v 0.021073 -0.006589 -0.288222
v -0.021073 0.568811 0.288222
v -0.027156 0.568084 -0.288438
v 0.024114 -0.006225 0.000108
v -0.024114 0.568447 -0.000108
v 0.022594 -0.006407 -0.144057
v -0.025635 0.568266 -0.144273
v -0.022594 0.568629 0.144057
v 0.025635 -0.006043 0.144273
v -0.006986 0.400960 0.288285
v -0.013069 0.400232 -0.288375
v -0.010028 0.400596 -0.000045
v -0.011548 0.400414 -0.144210
v -0.008507 0.400778 0.144120
v 0.005677 0.250068 0.288342
v -0.000405 0.249340 -0.288318
v 0.002636 0.249704 0.000012
v 0.001115 0.249522 -0.144153
v 0.004156 0.249886 0.144177
v -0.041095 -0.034845 0.020287
v -0.258578 -0.035572 -0.513825
v -0.086031 0.539828 0.037801
v -0.303514 0.539100 -0.496310
v -0.149836 -0.035209 -0.246769
v -0.194773 0.539464 -0.229254
v -0.204207 -0.035390 -0.380297
v -0.249144 0.539282 -0.362782
v -0.140402 0.539646 -0.095726
v -0.095466 -0.035027 -0.113241
v -0.072906 0.371976 0.032686
v -0.290389 0.371249 -0.501426
v -0.181648 0.371612 -0.234370
v -0.236019 0.371430 -0.367898
v -0.127277 0.371794 -0.100842
v -0.061107 0.221084 0.028087
v -0.278590 0.220357 -0.506025
v -0.169849 0.220720 -0.238969
v -0.224220 0.220539 -0.372497
v -0.115478 0.220902 -0.105441
v -0.445739 -0.005248 0.443815
v -0.278647 -0.005976 -0.108140
v -0.491684 0.569424 0.429149
v -0.324592 0.568697 -0.122806
v -0.362193 -0.005612 0.167838
v -0.408138 0.569060 0.153171
v -0.320420 -0.005794 0.029849
v -0.366365 0.568878 0.015183
v -0.449911 0.569242 0.291160
v -0.403966 -0.005430 0.305826
v -0.478264 0.401572 0.433433
v -0.311172 0.400845 -0.118522
v -0.394718 0.401209 0.157455
v -0.352945 0.401027 0.019466
v -0.436491 0.401390 0.295444
v -0.466200 0.250680 0.437284
v -0.299108 0.249953 -0.114671
v -0.382654 0.250317 0.161306
v -0.340881 0.250135 0.023317
v -0.424427 0.250499 0.299295
v -0.117849 -0.011838 0.175225
v -0.234472 -0.012448 -0.294464
v -0.164824 0.562803 0.186142
v -0.281447 0.562192 -0.283547
v -0.176161 -0.012143 -0.059620
v -0.223136 0.562497 -0.048703
v -0.205317 -0.012295 -0.177042
v -0.252291 0.562345 -0.166125
v -0.193980 0.562650 0.068720
v -0.147005 -0.011990 0.057803
v -0.151104 0.394960 0.182953
v -0.267726 0.394350 -0.286736
v -0.209415 0.394655 -0.051891
v -0.238571 0.394503 -0.169314
v -0.180259 0.394808 0.065531
v -0.138770 0.244077 0.180087
v -0.255392 0.243467 -0.289603
v -0.197081 0.243772 -0.054758
v -0.226237 0.243619 -0.172180
v -0.167925 0.243924 0.062665
v -0.444784 -0.005861 0.125298
v -0.450866 -0.006589 -0.350709
v -0.493012 0.568811 0.125120
v -0.499095 0.568084 -0.350888
v -0.447825 -0.006225 -0.112706
v -0.496054 0.568447 -0.112884
v -0.449345 -0.006407 -0.231708
v -0.497574 0.568266 -0.231886
v -0.494533 0.568629 0.006118
v -0.446304 -0.006043 0.006296
v -0.478926 0.400959 0.125172
v -0.485008 0.400232 -0.350836
v -0.481967 0.400596 -0.112832
v -0.483488 0.400414 -0.231834
v -0.480446 0.400778 0.006170
v -0.466262 0.250068 0.125219
v -0.472345 0.249340 -0.350789
v -0.469303 0.249704 -0.112785
v -0.470824 0.249522 -0.231787
v -0.467783 0.249886 0.006217
v -0.450537 -0.006306 0.531803
v -0.737361 -0.007034 0.031497
v -0.492733 0.568366 0.555159
v -0.779558 0.567639 0.054853
v -0.593949 -0.006670 0.281650
v -0.636146 0.568003 0.305006
v -0.665655 -0.006852 0.156574
v -0.707852 0.567821 0.179929
v -0.564440 0.568184 0.430082
v -0.522243 -0.006488 0.406727
v -0.480408 0.400515 0.548337
v -0.767233 0.399787 0.048031
v -0.623821 0.400151 0.298184
v -0.695527 0.399969 0.173108
v -0.552115 0.400333 0.423261
v -0.469329 0.249623 0.542204
v -0.756153 0.248895 0.041899
v -0.612741 0.249259 0.292052
v -0.684447 0.249077 0.166975
v -0.541035 0.249441 0.417128
v -0.786264 -0.003359 0.022977
v -0.451081 -0.004086 -0.383106
v -0.825084 0.571314 -0.001787
v -0.489902 0.570586 -0.407870
v -0.618672 -0.003723 -0.180064
v -0.657493 0.570950 -0.204828
v -0.534877 -0.003905 -0.281585
v -0.573698 0.570768 -0.306349
v -0.741289 0.571132 -0.103308
v -0.702468 -0.003541 -0.078543
v -0.813745 0.403462 0.005446
v -0.478563 0.402734 -0.400637
v -0.646154 0.403098 -0.197595
v -0.562359 0.402916 -0.299116
v -0.729950 0.403280 -0.096074
v -0.803552 0.252570 0.011949
v -0.468370 0.251843 -0.394134
v -0.635961 0.252206 -0.191093
v -0.552165 0.252024 -0.292614
v -0.719757 0.252388 -0.089572
v -0.530966 -0.005861 0.314625
v -0.495664 -0.006589 -0.260986
v -0.579055 0.568811 0.310949
v -0.543753 0.568084 -0.264662
v -0.513315 -0.006225 0.026819
v -0.561404 0.568447 0.023144
v -0.504489 -0.006407 -0.117083
v -0.552579 0.568266 -0.120759
v -0.570229 0.568629 0.167047
v -0.522140 -0.006043 0.170722
v -0.565009 0.400959 0.312023
v -0.529707 0.400232 -0.263588
v -0.547358 0.400596 0.024217
v -0.538533 0.400414 -0.119685
v -0.556183 0.400778 0.168120
v -0.552382 0.250068 0.312988
v -0.517080 0.249340 -0.262623
v -0.534731 0.249704 0.025182
v -0.525906 0.249522 -0.118720
v -0.543557 0.249886 0.169085
vn 0.7829 0.0836 0.6165
vn 0.9964 0.0836 -0.0106
vn 0.9229 0.0836 -0.3759
vn 0.9538 0.0836 0.2886
vn 0.9671 0.0836 -0.2402
vn 0.9964 0.0836 -0.0129
vn 0.8645 0.0836 -0.4957
vn 0.7689 0.0793 0.6345
vn 0.9946 0.0836 0.0609
vt 0.750000 0.707918
vt 1.000000 0.707918
vt 1.000000 1.000000
vt 0.750000 1.000000
vt 0.250000 0.707918
vt 0.500000 0.707918
vt 0.500000 1.000000
vt 0.250000 1.000000
vt 0.000000 0.707918
vt 0.000000 1.000000
vt 0.000000 0.445347
vt 0.250000 0.445347
vt 0.500000 0.445347
vt 0.750000 0.445347
vt 1.000000 0.445347
vt 0.750000 0.000000
vt 1.000000 0.000000
vt 0.250000 0.000000
vt 0.500000 0.000000
vt 0.000000 0.000000
s 0
usemtl Material.001
f 14/1/1 12/2/1 4/3/1 8/4/1
f 15/5/1 13/6/1 6/7/1 9/8/1
f 13/6/1 14/1/1 8/4/1 6/7/1
f 11/9/1 15/5/1 9/8/1 3/10/1
f 16/11/1 20/12/1 15/5/1 11/9/1
f 18/13/1 19/14/1 14/1/1 13/6/1
f 20/12/1 18/13/1 13/6/1 15/5/1
f 19/14/1 17/15/1 12/2/1 14/1/1
f 7/16/1 2/17/1 17/15/1 19/14/1
f 10/18/1 5/19/1 18/13/1 20/12/1
f 5/19/1 7/16/1 19/14/1 18/13/1
f 1/20/1 10/18/1 20/12/1 16/11/1
f 34/1/2 32/2/2 24/3/2 28/4/2
f 35/5/2 33/6/2 26/7/2 29/8/2
f 33/6/2 34/1/2 28/4/2 26/7/2
f 31/9/2 35/5/2 29/8/2 23/10/2
f 36/11/2 40/12/2 35/5/2 31/9/2
f 38/13/2 39/14/2 34/1/2 33/6/2
f 40/12/2 38/13/2 33/6/2 35/5/2
f 39/14/2 37/15/2 32/2/2 34/1/2
f 27/16/2 22/17/2 37/15/2 39/14/2
f 30/18/2 25/19/2 38/13/2 40/12/2
f 25/19/2 27/16/2 39/14/2 38/13/2
f 21/20/2 30/18/2 40/12/2 36/11/2
f 54/1/3 52/2/3 44/3/3 48/4/3
f 55/5/3 53/6/3 46/7/3 49/8/3
f 53/6/3 54/1/3 48/4/3 46/7/3
f 51/9/3 55/5/3 49/8/3 43/10/3
f 56/11/3 60/12/3 55/5/3 51/9/3
f 58/13/3 59/14/3 54/1/3 53/6/3
f 60/12/3 58/13/3 53/6/3 55/5/3
f 59/14/3 57/15/3 52/2/3 54/1/3
f 47/16/3 42/17/3 57/15/3 59/14/3
f 50/18/3 45/19/3 58/13/3 60/12/3
f 45/19/3 47/16/3 59/14/3 58/13/3
f 41/20/3 50/18/3 60/12/3 56/11/3
f 74/1/4 72/2/4 64/3/4 68/4/4
f 75/5/4 73/6/4 66/7/4 69/8/4
f 73/6/4 74/1/4 68/4/4 66/7/4
f 71/9/4 75/5/4 69/8/4 63/10/4
f 76/11/4 80/12/4 75/5/4 71/9/4
f 78/13/4 79/14/4 74/1/4 73/6/4
f 80/12/4 78/13/4 73/6/4 75/5/4
f 79/14/4 77/15/4 72/2/4 74/1/4
f 67/16/4 62/17/4 77/15/4 79/14/4
f 70/18/4 65/19/4 78/13/4 80/12/4
f 65/19/4 67/16/4 79/14/4 78/13/4
f 61/20/4 70/18/4 80/12/4 76/11/4
f 94/1/5 92/2/5 84/3/5 88/4/5
f 95/5/5 93/6/5 86/7/5 89/8/5
f 93/6/5 94/1/5 88/4/5 86/7/5
f 91/9/5 95/5/5 89/8/5 83/10/5
f 96/11/5 100/12/5 95/5/5 91/9/5
f 98/13/5 99/14/5 94/1/5 93/6/5
f 100/12/5 98/13/5 93/6/5 95/5/5
f 99/14/5 97/15/5 92/2/5 94/1/5
f 87/16/5 82/17/5 97/15/5 99/14/5
f 90/18/5 85/19/5 98/13/5 100/12/5
f 85/19/5 87/16/5 99/14/5 98/13/5
f 81/20/5 90/18/5 100/12/5 96/11/5
f 114/1/6 112/2/6 104/3/6 108/4/6
f 115/5/6 113/6/6 106/7/6 109/8/6
f 113/6/6 114/1/6 108/4/6 106/7/6
f 111/9/6 115/5/6 109/8/6 103/10/6
f 116/11/6 120/12/6 115/5/6 111/9/6
f 118/13/6 119/14/6 114/1/6 113/6/6
f 120/12/6 118/13/6 113/6/6 115/5/6
f 119/14/6 117/15/6 112/2/6 114/1/6
f 107/16/6 102/17/6 117/15/6 119/14/6
f 110/18/6 105/19/6 118/13/6 120/12/6
f 105/19/6 107/16/6 119/14/6 118/13/6
f 101/20/6 110/18/6 120/12/6 116/11/6
f 134/1/7 132/2/7 124/3/7 128/4/7
f 135/5/7 133/6/7 126/7/7 129/8/7
f 133/6/7 134/1/7 128/4/7 126/7/7
f 131/9/7 135/5/7 129/8/7 123/10/7
f 136/11/7 140/12/7 135/5/7 131/9/7
f 138/13/7 139/14/7 134/1/7 133/6/7
f 140/12/7 138/13/7 133/6/7 135/5/7
f 139/14/7 137/15/7 132/2/7 134/1/7
f 127/16/7 122/17/7 137/15/7 139/14/7
f 130/18/7 125/19/7 138/13/7 140/12/7
f 125/19/7 127/16/7 139/14/7 138/13/7
f 121/20/7 130/18/7 140/12/7 136/11/7
f 154/1/8 152/2/8 144/3/8 148/4/8
f 155/5/8 153/6/8 146/7/8 149/8/8
f 153/6/8 154/1/8 148/4/8 146/7/8
f 151/9/8 155/5/8 149/8/8 143/10/8
f 156/11/8 160/12/8 155/5/8 151/9/8
f 158/13/8 159/14/8 154/1/8 153/6/8
f 160/12/8 158/13/8 153/6/8 155/5/8
f 159/14/8 157/15/8 152/2/8 154/1/8
f 147/16/8 142/17/8 157/15/8 159/14/8
f 150/18/8 145/19/8 158/13/8 160/12/8
f 145/19/8 147/16/8 159/14/8 158/13/8
f 141/20/8 150/18/8 160/12/8 156/11/8
f 174/1/9 172/2/9 164/3/9 168/4/9
f 175/5/9 173/6/9 166/7/9 169/8/9
f 173/6/9 174/1/9 168/4/9 166/7/9
f 171/9/9 175/5/9 169/8/9 163/10/9
f 176/11/9 180/12/9 175/5/9 171/9/9
f 178/13/9 179/14/9 174/1/9 173/6/9
f 180/12/9 178/13/9 173/6/9 175/5/9
f 179/14/9 177/15/9 172/2/9 174/1/9
f 167/16/9 162/17/9 177/15/9 179/14/9
f 170/18/9 165/19/9 178/13/9 180/12/9
f 165/19/9 167/16/9 179/14/9 178/13/9
f 161/20/9 170/18/9 180/12/9 176/11/9
